<?xml version="1.0" encoding="UTF-8" standalone="no"?>
<svg
   width="152"
   height="57"
   viewBox="0 0 7.2738095 4.2981576"
   version="1.1"
   id="svg3"
   sodipodi:docname="image8.svg"
   inkscape:version="1.3.2 (091e20e, 2023-11-25, custom)"
   xmlns:inkscape="http://www.inkscape.org/namespaces/inkscape"
   xmlns:sodipodi="http://sodipodi.sourceforge.net/DTD/sodipodi-0.dtd"
   xmlns="http://www.w3.org/2000/svg"
   xmlns:svg="http://www.w3.org/2000/svg">
  <sodipodi:namedview
     id="namedview1"
     pagecolor="#ffffff"
     bordercolor="#000000"
     borderopacity="0.25"
     inkscape:showpageshadow="2"
     inkscape:pageopacity="0.0"
     inkscape:pagecheckerboard="0"
     inkscape:deskcolor="#d1d1d1"
     inkscape:zoom="6.1798015"
     inkscape:cx="44.58072"
     inkscape:cy="27.913518"
     inkscape:window-width="1920"
     inkscape:window-height="1001"
     inkscape:window-x="-9"
     inkscape:window-y="-9"
     inkscape:window-maximized="1"
     inkscape:current-layer="svg3" />
  <defs
     id="defs3" />
  <g
     fill-rule="evenodd"
     clip-rule="evenodd"
     id="g3"
     transform="matrix(0.03993655,0,0,0.02398136,-5.6811523e-6,-0.32439101)">
    <path
       fill="#ffffff"
       d="M 0,0 H 192.756 V 192.756 H 0 Z"
       id="path1" />
    <path
       d="m 142.076,71.947 -0.084,0.152 a 0.909,0.909 0 0 0 -0.113,0.448 c 0,0.219 0.074,0.442 0.189,0.574 l 0.275,0.314 c 0.135,0.152 0.223,0.42 0.223,0.667 l -0.012,0.165 -0.066,0.419 -0.039,0.42 c -0.031,0.354 -0.047,0.544 -0.047,0.572 0,1.048 1.07,1.5 3.557,1.5 3.057,0 3.689,0.471 3.689,2.756 0,3.125 -1.639,7.362 -4.182,10.819 -1.205,1.637 -1.494,2.156 -1.494,2.691 0,0.293 0.113,0.405 0.41,0.405 1.451,0 3.871,-1.251 7.355,-3.803 5.352,-3.918 8.141,-5.28 12.047,-5.88 1.057,-0.163 1.223,-0.266 1.223,-0.75 0,-0.648 -0.109,-1.014 -0.965,-3.231 -0.781,-2.024 -1.197,-3.833 -1.197,-5.208 0,-1.821 0.094,-1.963 1.809,-2.744 1.393,-0.634 1.762,-0.936 2.281,-1.862 0.648,-1.157 0.789,-1.368 1.279,-1.947 1.354,-1.596 1.854,-2.856 1.854,-4.675 l -0.002,-0.136 -0.02,-0.955 v -0.124 c 0,-0.54 0.068,-1.077 0.211,-1.633 l 0.238,-0.936 c 0.16,-0.626 0.256,-1.421 0.256,-2.125 0,-0.616 -0.061,-1.07 -0.209,-1.55 l -0.219,-0.715 -0.191,-0.783 -0.113,-0.917 c -0.328,-2.624 -2.229,-5.138 -4.641,-6.138 -0.924,-0.383 -1.002,-0.428 -1.775,-1.031 -1.506,-1.173 -2.305,-1.441 -4.295,-1.441 l -0.984,0.009 c -0.502,0 -1.338,-0.103 -2.156,-0.267 l -0.955,-0.191 a 9.409,9.409 0 0 0 -1.836,-0.194 c -0.846,0 -1.322,0.086 -2.547,0.462 -0.807,0.249 -1.135,0.322 -1.889,0.42 -1.408,0.184 -2.002,0.408 -3.924,1.48 -1.688,0.941 -1.836,1.053 -2.32,1.766 a 8.166,8.166 0 0 1 -0.371,0.516 c -0.086,0.102 -0.273,0.296 -0.564,0.582 -0.797,0.784 -1.082,1.465 -1.082,2.588 0,1.723 0.707,2.9 2.133,3.55 0.262,0.12 0.355,0.256 0.355,0.52 0,0.322 -0.125,0.698 -0.662,1.99 -0.379,0.919 -0.451,1.133 -0.451,1.359 0,0.167 0.051,0.341 0.146,0.503 l 0.277,0.468 c 0.125,0.212 0.191,0.45 0.191,0.689 0,0.371 -0.1,0.66 -0.42,1.22 l -0.67,1.165 c -1.389,2.421 -1.818,3.328 -1.818,3.84 0,0.588 0.271,0.836 1.141,1.038 0.994,0.231 1.262,0.429 1.262,0.933 0,0.178 -0.055,0.333 -0.211,0.596 -0.205,0.344 -0.258,0.481 -0.258,0.657 0,0.203 0.016,0.239 0.268,0.574 l 0.143,0.191 c 0.037,0.047 0.043,0.059 0.043,0.076 0,0.014 -0.004,0.024 -0.023,0.058 z M 8.67,114.121 c 2.587,1.363 4.402,1.877 6.62,1.877 4.339,0 7.607,-2.943 7.607,-6.855 0,-2.84 -1.184,-4.297 -5.024,-6.189 l -1.996,-0.984 c -2.82,-1.389 -3.676,-2.232 -3.676,-3.615 0,-1.854 1.524,-3.212 3.604,-3.212 2.142,0 3.773,1.154 5.333,3.773 l 0.239,0.01 L 21.442,95 c -2.426,-0.989 -3.909,-1.337 -5.701,-1.337 -3.877,0 -6.872,2.498 -6.872,5.731 0,2.406 1.33,3.945 5.061,5.859 l 1.843,0.943 c 3.095,1.59 3.822,2.369 3.822,4.107 0,2.166 -1.935,3.879 -4.383,3.879 -2.858,0 -5.178,-1.826 -6.055,-4.768 l -0.401,-0.01 z M 37.375,98.904 c -1.499,-0.607 -2.758,-0.861 -4.294,-0.861 -5.023,0 -8.57,3.68 -8.57,8.895 0,5.342 3.294,9.018 8.083,9.018 1.887,0 3.175,-0.42 4.839,-1.576 l 0.458,-2.396 -0.133,-0.027 c -1.32,1.496 -2.658,2.188 -4.236,2.188 -3.258,0 -5.283,-2.982 -5.283,-7.779 0,-4.207 1.972,-6.904 5.048,-6.904 1.821,0 2.957,0.82 3.831,2.768 h 0.258 v -3.326 z m 13.651,16.717 h 4.582 v -0.115 c -0.796,-0.648 -1.002,-1.316 -1.002,-3.246 v -6.262 L 54.597,105.1 c -0.053,-4.938 -1.788,-7.055 -5.781,-7.055 -1.981,0 -3.748,0.75 -5.54,2.35 V 85.177 H 38.75 v 0.115 c 0.732,0.728 0.897,1.326 0.897,3.245 v 23.646 c 0,1.947 -0.223,2.686 -1.002,3.322 v 0.115 h 5.632 v -0.115 c -0.772,-0.629 -1.002,-1.375 -1.002,-3.246 v -6.844 c 0,-3.656 1.364,-5.414 4.198,-5.414 2.722,0 3.553,1.26 3.553,5.395 z M 76.418,98.58 c 0.756,0.205 1.138,0.719 1.138,1.533 0,0.438 -0.219,1.432 -0.508,2.305 l -2.911,8.811 -3.771,-12.762 h -1.853 l -4.113,12.744 -2.854,-9.576 -0.115,-0.43 -0.152,-0.592 a 3.722,3.722 0 0 1 -0.118,-0.824 c 0,-0.576 0.173,-0.898 0.662,-1.229 V 98.437 H 55.99 v 0.123 c 1.026,0.605 1.55,1.686 2.73,5.633 l 3.417,11.428 h 2.625 l 3.714,-11.514 3.417,11.514 h 2.615 l 4.478,-13.852 c 0.653,-2.023 1.173,-2.652 2.635,-3.189 v -0.123 h -5.203 z m 31.646,-0.019 -0.648,3.484 0.189,0.01 c 0.852,-1.373 2.043,-1.889 4.439,-1.918 l 2.998,-0.039 -9.414,15.523 h 13.785 l 0.479,-4.039 h -0.211 c -1.205,1.934 -2.123,2.387 -4.83,2.387 h -4.219 l 9.336,-15.408 z m 17.813,6.73 V 85.168 h -4.523 v 0.125 c 0.691,0.61 0.896,1.349 0.896,3.245 v 23.647 c 0,1.99 -0.207,2.674 -1.002,3.322 v 0.115 h 5.631 v -0.115 c -0.809,-0.73 -1.002,-1.357 -1.002,-3.246 v -6.07 l 7.027,9.432 h 4.887 v -0.115 a 86.616,86.616 0 0 1 -4.668,-5.518 93.897,93.897 0 0 1 -1.947,-2.568 c -0.15,-0.207 -0.67,-0.934 -1.557,-2.176 l -0.545,-0.764 6.922,-5.92 v -0.123 h -5.594 v 0.123 c 0.336,0.125 0.535,0.459 0.535,0.902 0,1.195 -0.793,2.186 -3.818,4.77 z m 50.91,-5.184 0.01,11.646 v 0.293 c 0,2.127 -0.168,2.707 -1.002,3.459 v 0.115 h 5.584 v -0.115 c -0.797,-0.648 -1.002,-1.316 -1.002,-3.246 v -0.506 l -0.01,-11.646 h 2.75 l 0.324,-1.547 h -3.064 v -5.489 c 0,-1.891 0.627,-2.883 1.824,-2.883 0.646,0 1.096,0.29 1.449,0.936 h 0.057 l 0.545,-2.252 c -0.447,-0.125 -0.879,-0.173 -1.52,-0.173 -4.289,0 -5.936,2.295 -5.936,8.268 v 1.594 h -1.174 l -0.516,1.557 z m -75.07,0.573 -0.01,-2.242 h -4.479 v 0.115 c 0.738,0.732 0.898,1.311 0.898,3.244 v 10.387 c 0,1.988 -0.207,2.674 -1.002,3.322 v 0.115 h 5.584 v -0.115 c -0.807,-0.729 -1.002,-1.363 -1.002,-3.256 v -0.496 l 0.01,-7.18 v -0.572 c 0,-1.863 1.082,-3.141 2.66,-3.141 0.799,0 1.395,0.297 1.855,0.928 h 0.113 l 0.201,-3.562 c -2.084,0.113 -3.309,0.734 -4.828,2.453 z m -8.211,11.504 v -6.93 l -0.01,-1.127 c -0.038,-4.51 -1.412,-6.096 -5.281,-6.096 -1.604,0 -3.161,0.385 -5.201,1.283 l -0.63,3.094 h 0.401 c 1.256,-1.934 2.78,-2.949 4.424,-2.949 1.549,0 2.659,1.111 2.659,2.666 0,1.588 -0.992,2.535 -3.98,3.797 -4.387,1.852 -5.694,3.148 -5.694,5.652 0,2.498 1.847,4.287 4.426,4.287 1.625,0 3.723,-0.838 5.458,-2.18 v 1.939 h 4.429 v -0.115 c -0.778,-0.636 -1.001,-1.374 -1.001,-3.321 z m -3.465,-2.883 v 0.783 c 0,2.344 -1.294,3.756 -3.443,3.756 -1.581,0 -2.773,-1.246 -2.773,-2.895 0,-1.715 0.808,-2.641 3.62,-4.146 1.322,-0.707 1.741,-0.977 2.596,-1.67 z"
       id="path2" />
    <path
       d="m 146.312,97.875 c -5.297,0 -9.344,3.947 -9.344,9.119 0,5.148 4.068,9.193 9.244,9.193 5.162,0 9.086,-3.967 9.086,-9.182 0.001,-5.11 -3.956,-9.13 -8.986,-9.13 z m 0.135,16.887 c -3.219,0 -5.469,-3.459 -5.469,-8.404 0,-4.221 1.992,-7.053 4.963,-7.053 3.209,0 5.338,3.395 5.338,8.514 0,4.259 -1.867,6.943 -4.832,6.943 z m 20.125,-16.717 c -2.305,0 -3.949,0.779 -5.365,2.541 v -2.148 h -4.477 v 0.115 c 0.682,0.598 0.906,1.406 0.906,3.244 v 22.827 c 0,1.973 -0.184,2.584 -1.002,3.322 v 0.113 h 5.586 v -0.113 c -0.797,-0.648 -1.004,-1.316 -1.004,-3.246 v -0.506 l -0.01,-9.326 c 1.303,0.811 2.414,1.129 3.928,1.129 4.771,0 8.586,-4.352 8.586,-9.795 0.001,-4.792 -2.949,-8.157 -7.148,-8.157 z m -1.636,16.473 c -2.414,0 -3.65,-1.322 -3.699,-3.957 l -0.02,-1.031 -0.01,-0.314 v -4.248 c 0,-3.43 1.262,-5.074 3.887,-5.074 2.918,0 4.875,2.924 4.875,7.289 0,4.454 -1.977,7.335 -5.033,7.335 z M 9.851,136.064 c 0,-2.027 0,-2.4 -0.026,-2.828 -0.027,-0.453 -0.134,-0.666 -0.574,-0.76 a 2.726,2.726 0 0 0 -0.52,-0.039 c -0.147,0 -0.227,-0.027 -0.227,-0.121 0,-0.094 0.093,-0.119 0.293,-0.119 0.707,0 1.547,0.039 1.92,0.039 0.547,0 1.32,-0.039 1.934,-0.039 1.667,0 2.267,0.561 2.48,0.76 0.294,0.279 0.667,0.881 0.667,1.588 0,1.893 -1.387,3.227 -3.281,3.227 -0.066,0 -0.213,0 -0.28,-0.014 -0.066,-0.014 -0.16,-0.027 -0.16,-0.119 0,-0.107 0.094,-0.146 0.374,-0.146 0.747,0 1.787,-0.842 1.787,-2.201 0,-0.439 -0.04,-1.334 -0.787,-2 a 1.978,1.978 0 0 0 -1.333,-0.521 c -0.2,0 -0.4,0.014 -0.52,0.055 -0.067,0.025 -0.106,0.105 -0.106,0.252 v 5.336 c 0,1.227 0,2.279 0.066,2.854 0.04,0.373 0.12,0.666 0.52,0.719 0.187,0.027 0.48,0.055 0.68,0.055 0.146,0 0.213,0.039 0.213,0.105 0,0.094 -0.106,0.135 -0.253,0.135 -0.88,0 -1.72,-0.041 -2.067,-0.041 -0.307,0 -1.146,0.041 -1.68,0.041 -0.173,0 -0.267,-0.041 -0.267,-0.135 0,-0.066 0.054,-0.105 0.214,-0.105 0.2,0 0.36,-0.027 0.48,-0.055 0.266,-0.053 0.333,-0.346 0.386,-0.732 0.066,-0.561 0.066,-1.613 0.066,-2.84 v -2.351 z m 14.606,0 c 0,-2.027 0,-2.4 -0.027,-2.828 -0.026,-0.453 -0.133,-0.666 -0.573,-0.76 a 2.72,2.72 0 0 0 -0.52,-0.039 c -0.147,0 -0.228,-0.027 -0.228,-0.121 0,-0.094 0.094,-0.119 0.294,-0.119 0.707,0 1.547,0.039 1.827,0.039 0.454,0 1.467,-0.039 1.881,-0.039 0.84,0 1.733,0.08 2.454,0.572 0.374,0.254 0.907,0.934 0.907,1.828 0,0.986 -0.414,1.893 -1.76,2.986 1.187,1.494 2.107,2.682 2.894,3.508 0.747,0.773 1.293,0.867 1.494,0.906 0.147,0.027 0.267,0.041 0.373,0.041 0.107,0 0.16,0.039 0.16,0.105 0,0.107 -0.093,0.135 -0.253,0.135 h -1.268 c -0.746,0 -1.08,-0.066 -1.427,-0.254 -0.573,-0.307 -1.08,-0.934 -1.827,-1.961 -0.533,-0.732 -1.146,-1.641 -1.32,-1.84 -0.066,-0.08 -0.146,-0.094 -0.24,-0.094 l -1.161,-0.025 c -0.066,0 -0.106,0.025 -0.106,0.105 v 0.188 c 0,1.24 0,2.293 0.067,2.854 0.04,0.387 0.12,0.68 0.52,0.732 0.2,0.027 0.494,0.055 0.653,0.055 0.107,0 0.16,0.039 0.16,0.105 0,0.094 -0.093,0.135 -0.267,0.135 -0.773,0 -1.76,-0.041 -1.96,-0.041 -0.253,0 -1.093,0.041 -1.627,0.041 -0.173,0 -0.267,-0.041 -0.267,-0.135 0,-0.066 0.053,-0.105 0.214,-0.105 0.2,0 0.36,-0.027 0.479,-0.055 0.267,-0.053 0.334,-0.346 0.387,-0.732 0.066,-0.561 0.066,-1.613 0.066,-2.84 v -2.347 z m 1.574,1.053 c 0,0.148 0.026,0.201 0.12,0.24 0.281,0.094 0.68,0.135 1.014,0.135 0.534,0 0.707,-0.055 0.947,-0.227 0.4,-0.295 0.787,-0.908 0.787,-2.002 0,-1.893 -1.254,-2.439 -2.041,-2.439 -0.333,0 -0.573,0.012 -0.707,0.053 -0.093,0.027 -0.12,0.08 -0.12,0.188 z m 12.849,0.121 c 0,-2.281 1.507,-5.229 5.507,-5.229 3.321,0 5.388,1.934 5.388,4.988 0,3.054 -2.134,5.467 -5.521,5.467 -3.827,0.001 -5.374,-2.866 -5.374,-5.226 z m 9.029,0.254 c 0,-2.988 -1.72,-4.842 -3.908,-4.842 -1.534,0 -3.28,0.854 -3.28,4.174 0,2.773 1.533,4.975 4.094,4.975 0.933,0 3.094,-0.453 3.094,-4.307 z m 12.209,0.92 c 0,1.279 0,2.279 0.067,2.84 0.04,0.387 0.12,0.68 0.52,0.732 0.188,0.027 0.48,0.055 0.667,0.055 0.174,0 0.228,0.039 0.228,0.105 0,0.094 -0.094,0.135 -0.294,0.135 -0.84,0 -1.681,-0.041 -2.027,-0.041 -0.346,0 -1.187,0.041 -1.693,0.041 -0.187,0 -0.28,-0.027 -0.28,-0.135 0,-0.066 0.054,-0.105 0.2,-0.105 0.2,0 0.36,-0.027 0.48,-0.055 0.267,-0.053 0.333,-0.346 0.387,-0.732 0.067,-0.561 0.067,-1.561 0.067,-2.84 v -2.348 c 0,-2.027 0,-2.4 -0.026,-2.828 -0.027,-0.453 -0.134,-0.666 -0.574,-0.76 a 2.726,2.726 0 0 0 -0.52,-0.039 c -0.134,0 -0.227,-0.027 -0.227,-0.107 0,-0.107 0.106,-0.133 0.307,-0.133 0.693,0 1.533,0.039 1.92,0.039 0.507,0 3.214,0 3.521,-0.014 0.253,-0.012 0.413,-0.012 0.547,-0.053 0.08,-0.027 0.146,-0.08 0.213,-0.08 0.054,0 0.093,0.053 0.093,0.121 0,0.092 -0.067,0.252 -0.106,0.6 -0.014,0.133 -0.041,0.92 -0.067,1.08 -0.013,0.107 -0.04,0.186 -0.133,0.186 -0.093,0 -0.12,-0.066 -0.134,-0.213 0,-0.105 0,-0.32 -0.08,-0.506 -0.094,-0.188 -0.374,-0.387 -0.88,-0.4 l -2.054,-0.039 c -0.08,0 -0.12,0.039 -0.12,0.186 v 3.334 c 0,0.08 0.013,0.119 0.093,0.119 l 1.707,-0.012 c 0.227,0 0.414,0 0.601,-0.014 0.253,-0.014 0.44,-0.066 0.573,-0.24 0.066,-0.08 0.093,-0.133 0.173,-0.133 0.054,0 0.08,0.039 0.08,0.119 0,0.08 -0.067,0.414 -0.107,0.828 -0.026,0.266 -0.053,0.879 -0.053,0.973 0,0.121 0,0.254 -0.133,0.254 -0.08,0 -0.106,-0.094 -0.106,-0.188 0,-0.094 -0.027,-0.254 -0.08,-0.414 -0.067,-0.186 -0.267,-0.426 -0.681,-0.479 -0.333,-0.041 -1.747,-0.041 -1.974,-0.041 -0.066,0 -0.093,0.027 -0.093,0.121 v 1.081 z m 12.486,-2.348 c 0,-2.027 0,-2.4 -0.027,-2.828 -0.026,-0.453 -0.133,-0.666 -0.574,-0.76 a 2.72,2.72 0 0 0 -0.52,-0.039 c -0.146,0 -0.227,-0.027 -0.227,-0.121 0,-0.094 0.094,-0.119 0.293,-0.119 0.707,0 1.547,0.039 1.92,0.039 0.427,0 3.081,0 3.334,-0.014 0.253,-0.025 0.467,-0.053 0.574,-0.08 0.066,-0.012 0.146,-0.053 0.213,-0.053 0.066,0 0.08,0.053 0.08,0.121 0,0.092 -0.067,0.252 -0.107,0.865 -0.013,0.135 -0.04,0.721 -0.067,0.881 -0.013,0.066 -0.04,0.146 -0.133,0.146 -0.094,0 -0.12,-0.066 -0.12,-0.186 0,-0.094 -0.014,-0.32 -0.08,-0.48 -0.094,-0.24 -0.227,-0.4 -0.894,-0.48 -0.227,-0.027 -1.627,-0.053 -1.894,-0.053 -0.066,0 -0.093,0.039 -0.093,0.133 v 3.375 c 0,0.092 0.014,0.145 0.093,0.145 0.293,0 1.827,0 2.134,-0.025 0.32,-0.027 0.521,-0.066 0.64,-0.199 0.094,-0.107 0.146,-0.174 0.214,-0.174 0.053,0 0.093,0.025 0.093,0.105 0,0.08 -0.066,0.293 -0.106,0.975 -0.026,0.266 -0.054,0.801 -0.054,0.893 0,0.107 0,0.254 -0.12,0.254 -0.093,0 -0.12,-0.053 -0.12,-0.121 -0.013,-0.133 -0.013,-0.305 -0.053,-0.479 -0.067,-0.268 -0.253,-0.467 -0.747,-0.52 -0.253,-0.027 -1.573,-0.041 -1.894,-0.041 -0.066,0 -0.08,0.053 -0.08,0.133 v 1.055 c 0,0.453 -0.013,1.68 0,2.066 0.027,0.92 0.24,1.121 1.601,1.121 0.347,0 0.907,0 1.253,-0.16 0.347,-0.16 0.507,-0.441 0.601,-0.988 0.027,-0.146 0.053,-0.199 0.147,-0.199 0.106,0 0.106,0.105 0.106,0.24 0,0.307 -0.106,1.213 -0.173,1.48 -0.093,0.346 -0.213,0.346 -0.72,0.346 -2.014,0 -2.908,-0.08 -3.694,-0.08 -0.307,0 -1.147,0.041 -1.681,0.041 -0.173,0 -0.267,-0.041 -0.267,-0.135 0,-0.066 0.053,-0.105 0.213,-0.105 0.2,0 0.36,-0.027 0.48,-0.055 0.267,-0.053 0.333,-0.346 0.387,-0.732 0.067,-0.561 0.067,-1.613 0.067,-2.84 v -2.348 z m 13.567,6.055 c -0.213,-0.094 -0.253,-0.16 -0.253,-0.453 0,-0.734 0.054,-1.535 0.066,-1.748 0.014,-0.199 0.054,-0.346 0.16,-0.346 0.12,0 0.133,0.119 0.133,0.227 0,0.172 0.054,0.453 0.12,0.68 0.293,0.986 1.08,1.348 1.907,1.348 1.201,0 1.787,-0.814 1.787,-1.521 0,-0.652 -0.199,-1.279 -1.307,-2.133 l -0.613,-0.48 c -1.467,-1.146 -1.974,-2.08 -1.974,-3.16 0,-1.467 1.227,-2.521 3.081,-2.521 a 6.43,6.43 0 0 1 1.774,0.227 c 0.121,0.027 0.187,0.066 0.187,0.16 0,0.174 -0.054,0.561 -0.054,1.602 0,0.293 -0.04,0.398 -0.146,0.398 -0.094,0 -0.134,-0.08 -0.134,-0.24 0,-0.119 -0.066,-0.533 -0.347,-0.879 -0.2,-0.254 -0.587,-0.654 -1.453,-0.654 -0.987,0 -1.587,0.574 -1.587,1.375 0,0.613 0.307,1.08 1.414,1.92 l 0.374,0.279 c 1.6,1.24 2.187,2.135 2.187,3.4 0,0.773 -0.293,1.695 -1.253,2.322 -0.667,0.426 -1.414,0.545 -2.121,0.545 -0.775,-0.002 -1.374,-0.094 -1.948,-0.348 z m 13.632,0 c -0.213,-0.094 -0.254,-0.16 -0.254,-0.453 0,-0.734 0.055,-1.535 0.068,-1.748 0.012,-0.199 0.053,-0.346 0.16,-0.346 0.119,0 0.133,0.119 0.133,0.227 0,0.172 0.053,0.453 0.119,0.68 0.293,0.986 1.08,1.348 1.908,1.348 1.199,0 1.787,-0.814 1.787,-1.521 0,-0.652 -0.201,-1.279 -1.307,-2.133 l -0.615,-0.48 c -1.467,-1.146 -1.973,-2.08 -1.973,-3.16 0,-1.467 1.227,-2.521 3.08,-2.521 0.867,0 1.428,0.133 1.773,0.227 0.121,0.027 0.188,0.066 0.188,0.16 0,0.174 -0.053,0.561 -0.053,1.602 0,0.293 -0.041,0.398 -0.148,0.398 -0.092,0 -0.133,-0.08 -0.133,-0.24 0,-0.119 -0.066,-0.533 -0.348,-0.879 -0.199,-0.254 -0.586,-0.654 -1.453,-0.654 -0.986,0 -1.586,0.574 -1.586,1.375 0,0.613 0.307,1.08 1.412,1.92 l 0.375,0.279 c 1.6,1.24 2.188,2.135 2.188,3.4 0,0.773 -0.295,1.695 -1.254,2.322 -0.668,0.426 -1.414,0.545 -2.121,0.545 -0.772,-0.002 -1.372,-0.094 -1.946,-0.348 z m 14.365,-6.055 c 0,-2.027 0,-2.4 -0.025,-2.828 -0.027,-0.453 -0.16,-0.68 -0.453,-0.746 a 1.846,1.846 0 0 0 -0.48,-0.053 c -0.133,0 -0.213,-0.027 -0.213,-0.135 0,-0.08 0.105,-0.105 0.318,-0.105 0.508,0 1.348,0.039 1.734,0.039 0.334,0 1.121,-0.039 1.627,-0.039 0.174,0 0.279,0.025 0.279,0.105 0,0.107 -0.078,0.135 -0.213,0.135 -0.133,0 -0.24,0.012 -0.398,0.039 -0.361,0.066 -0.469,0.293 -0.494,0.76 -0.027,0.428 -0.027,0.801 -0.027,2.828 v 2.348 c 0,1.293 0,2.346 0.053,2.92 0.041,0.359 0.135,0.6 0.533,0.652 0.188,0.027 0.48,0.055 0.682,0.055 0.146,0 0.213,0.039 0.213,0.105 0,0.094 -0.107,0.135 -0.254,0.135 -0.879,0 -1.719,-0.041 -2.08,-0.041 -0.307,0 -1.146,0.041 -1.68,0.041 -0.174,0 -0.268,-0.041 -0.268,-0.135 0,-0.066 0.055,-0.105 0.213,-0.105 0.201,0 0.361,-0.027 0.48,-0.055 0.268,-0.053 0.348,-0.279 0.387,-0.666 0.066,-0.561 0.066,-1.613 0.066,-2.906 z m 10.316,1.174 c 0,-2.281 1.506,-5.229 5.508,-5.229 3.32,0 5.389,1.934 5.389,4.988 0,3.054 -2.135,5.467 -5.521,5.467 -3.829,0.001 -5.376,-2.866 -5.376,-5.226 z m 9.03,0.254 c 0,-2.988 -1.721,-4.842 -3.908,-4.842 -1.533,0 -3.281,0.854 -3.281,4.174 0,2.773 1.533,4.975 4.094,4.975 0.933,0 3.095,-0.453 3.095,-4.307 z m 11.34,2.973 c 0.027,1.041 0.201,1.387 0.467,1.48 0.227,0.08 0.48,0.094 0.693,0.094 0.148,0 0.229,0.027 0.229,0.105 0,0.107 -0.121,0.135 -0.309,0.135 -0.867,0 -1.4,-0.041 -1.652,-0.041 -0.121,0 -0.748,0.041 -1.441,0.041 -0.172,0 -0.293,-0.014 -0.293,-0.135 0,-0.078 0.08,-0.105 0.213,-0.105 0.174,0 0.414,-0.014 0.602,-0.066 0.346,-0.107 0.398,-0.494 0.412,-1.654 l 0.121,-7.895 c 0,-0.268 0.039,-0.453 0.172,-0.453 0.148,0 0.268,0.172 0.494,0.412 0.16,0.174 2.188,2.348 4.135,4.281 0.906,0.906 2.707,2.828 2.934,3.041 h 0.066 l -0.133,-5.988 c -0.014,-0.812 -0.133,-1.066 -0.453,-1.199 -0.201,-0.08 -0.52,-0.08 -0.707,-0.08 -0.16,0 -0.213,-0.041 -0.213,-0.121 0,-0.105 0.146,-0.119 0.346,-0.119 0.693,0 1.334,0.039 1.615,0.039 0.145,0 0.652,-0.039 1.305,-0.039 0.174,0 0.309,0.014 0.309,0.119 0,0.08 -0.08,0.121 -0.24,0.121 -0.135,0 -0.24,0 -0.4,0.039 -0.373,0.107 -0.48,0.387 -0.494,1.135 l -0.146,8.414 c 0,0.293 -0.053,0.414 -0.174,0.414 -0.146,0 -0.307,-0.146 -0.453,-0.295 -0.84,-0.799 -2.547,-2.547 -3.934,-3.92 -1.455,-1.439 -2.934,-3.107 -3.174,-3.361 h -0.041 z m 18.289,-1.666 c -0.066,0 -0.094,0.025 -0.119,0.105 l -0.721,1.908 c -0.133,0.332 -0.201,0.652 -0.201,0.812 0,0.24 0.121,0.414 0.535,0.414 h 0.199 c 0.16,0 0.199,0.027 0.199,0.105 0,0.107 -0.08,0.135 -0.227,0.135 -0.426,0 -1,-0.041 -1.412,-0.041 -0.148,0 -0.881,0.041 -1.574,0.041 -0.174,0 -0.254,-0.027 -0.254,-0.135 0,-0.078 0.053,-0.105 0.16,-0.105 0.119,0 0.307,-0.014 0.414,-0.027 0.613,-0.08 0.865,-0.533 1.133,-1.199 l 3.348,-8.375 c 0.16,-0.387 0.24,-0.533 0.373,-0.533 0.121,0 0.201,0.119 0.334,0.426 0.32,0.734 2.453,6.174 3.307,8.201 0.508,1.201 0.895,1.389 1.174,1.453 0.201,0.041 0.4,0.055 0.561,0.055 0.107,0 0.174,0.014 0.174,0.105 0,0.107 -0.121,0.135 -0.613,0.135 -0.48,0 -1.455,0 -2.521,-0.027 -0.24,-0.014 -0.4,-0.014 -0.4,-0.107 0,-0.078 0.055,-0.105 0.188,-0.119 0.094,-0.027 0.186,-0.146 0.119,-0.307 l -1.066,-2.826 c -0.027,-0.068 -0.066,-0.094 -0.133,-0.094 z m 2.72,-0.668 c 0.066,0 0.08,-0.039 0.066,-0.08 l -1.199,-3.293 c -0.014,-0.055 -0.027,-0.121 -0.068,-0.121 -0.039,0 -0.066,0.066 -0.08,0.121 l -1.227,3.281 c -0.014,0.053 0,0.092 0.055,0.092 z m 13.621,0.281 c 0,1.705 0,2.627 0.281,2.867 0.227,0.199 0.572,0.293 1.613,0.293 0.707,0 1.227,-0.014 1.561,-0.373 0.16,-0.174 0.32,-0.547 0.346,-0.801 0.014,-0.119 0.041,-0.199 0.148,-0.199 0.092,0 0.105,0.066 0.105,0.227 0,0.146 -0.094,1.146 -0.199,1.533 -0.08,0.293 -0.148,0.359 -0.842,0.359 -1.92,0 -2.799,-0.08 -3.881,-0.08 -0.307,0 -1.146,0.041 -1.68,0.041 -0.174,0 -0.268,-0.041 -0.268,-0.135 0,-0.066 0.055,-0.105 0.215,-0.105 a 2.1,2.1 0 0 0 0.48,-0.055 c 0.266,-0.053 0.332,-0.346 0.387,-0.732 0.066,-0.561 0.066,-1.613 0.066,-2.84 v -2.348 c 0,-2.027 0,-2.4 -0.027,-2.828 -0.027,-0.453 -0.133,-0.666 -0.574,-0.76 a 1.95,1.95 0 0 0 -0.439,-0.039 c -0.146,0 -0.227,-0.027 -0.227,-0.121 0,-0.094 0.094,-0.119 0.293,-0.119 0.627,0 1.467,0.039 1.828,0.039 0.32,0 1.293,-0.039 1.812,-0.039 0.188,0 0.281,0.025 0.281,0.119 0,0.094 -0.08,0.121 -0.24,0.121 -0.146,0 -0.361,0.012 -0.52,0.039 -0.361,0.066 -0.469,0.293 -0.494,0.76 -0.027,0.428 -0.027,0.801 -0.027,2.828 v 2.348 z"
       id="path3" />
  </g>
</svg>
